# xmcd CD database file
# Copyright (C) 1993-1998 Ti Kan
# 
# Track frame offsets:
#     150
#     19563
#     41572
#     58142
#     76250
#     94150
#     110993
#     123714
#     143077
#     160091
#     175854
#     196479
#     210971
# 
# Disc length: 3055 seconds
# 
# Revision: 1
# Processed by: cddbd v1.4b41PL1 Copyright (c) Steve Scherf et al.
# Submitted via: DiscPlay 4.0.4
# 
DISCID=b00bed0d
DTITLE=Gian and Giovani - Meu Brasil
DYEAR=1900
DGENRE=
TTITLE0=Quem Ser 
TTITLE1=Amor de Verdade
TTITLE2=1.000 Cora  es
TTITLE3=Al 
TTITLE4=Procurando Amor
TTITLE5=Sempre Vou Te Amar
TTITLE6=Cai no La o
TTITLE7=O Grande Amor da Minha Vida
TTITLE8=Por Telefone
TTITLE9=Se Voc  me Provocar
TTITLE10=Interior
TTITLE11=Pra Te Ver Rebolar
TTITLE12=Meu Brasil
EXTD=
EXTT0=
EXTT1=
EXTT2=
EXTT3=
EXTT4=
EXTT5=
EXTT6=
EXTT7=
EXTT8=
EXTT9=
EXTT10=
EXTT11=
EXTT12=
PLAYORDER=
